PathFileType	4	(X/Y/Z)	C:/Users/beibeiliu/ov580/test_trc/User2\sequence.18_training_dense_right.trc
DataRate	CameraRate	NumFrames	NumMarkers	Units	OrigDataRate	OrigDataStartFrame	OrigNumFrames
120	120	20	19	mm	120	161	429
Frame#	Time	ThumbCMC			ThumbMCP			ThumbIP			ThumbTip			IndexMCP			IndexPIP			IndexTip			MiddleMCP			MiddlePIP			MiddleTip			RingMCP			RingPIP			RingTip			PinkyMCP			PinkyPIP			PinkyTip			BackHand1			BackHand2			BackHand3	
		X0	Y0	Z0	X1	Y1	Z1	X2	Y2	Z2	X3	Y3	Z3	X4	Y4	Z4	X5	Y5	Z5	X6	Y6	Z6	X7	Y7	Z7	X8	Y8	Z8	X9	Y9	Z9	X10	Y10	Z10	X11	Y11	Z11	X12	Y12	Z12	X13	Y13	Z13	X14	Y14	Z14	X15	Y15	Z15	X16	Y16	Z16	X17	Y17	Z17	X18	Y18	Z18	
160	1.33333	49.2041	0.966089	21.5198	21.9584	-4.9436	0.697693	6.79976	-17.7249	-28.875	6.77999	-36.5086	-53.0791	42.8091	-21.4759	-54.1858	25.8385	-46.0753	-47.593	34.4158	-32.0132	-11.1919	55.3875	-41.4216	-56.3738	33.0346	-63.9071	-38.8634	42.244	-50.7791	-5.49162	65.7753	-61.0649	-47.9071	45.3082	-73.6615	-30.1141	56.3533	-52.1866	-1.3287	82.3169	-72.3383	-33.9085	56.5001	-80.7962	-19.1943	62.2881	-63.221	6.42437	107.134	-21.5447	-6.54957	116.163	-15.1808	21.2252	83.8244	8.20464	7.1996	
161	1.34167	42.1129	-3.51645	28.6144	19.3997	-12.0551	1.20243	8.38772	-23.0935	-32.4299	7.93576	-36.4332	-51.5378	43.1963	-16.6991	-53.5023	30.9324	-46.6368	-51.5153	34.7284	-35.7184	-14.407	56.9198	-33.965	-58.1788	44.8721	-63.9013	-48.0833	43.427	-51.8286	-9.47862	73.2761	-52.5297	-50.6088	54.9881	-72.8033	-36.0016	59.1388	-55.8169	-6.38089	88.3477	-62.3173	-39.1872	67.8265	-81.3252	-24.5636	69.6387	-64.3072	3.30107	102.046	-11.577	-8.17084	111.574	-5.6286	28.5017	77.3423	11.6772	13.0467	
162	1.35	38.0236	-9.28693	29.4767	15.3243	-16.5933	3.94804	7.59972	-24.9245	-28.3272	9.08317	-35.7416	-52.1501	41.0131	-12.035	-50.4369	33.0152	-42.9655	-56.4858	30.8488	-42.6357	-20.7661	57.6073	-26.4059	-59.0832	45.1727	-58.3706	-53.6057	47.4092	-50.0559	-11.6113	72.7571	-41.5862	-54.6195	59.4873	-66.5751	-45.0536	63.4664	-50.2304	-10.2967	96.5537	-49.9422	-43.8388	73.6242	-73.8725	-33.5239	74.2816	-60.0582	-3.00731	100.708	-5.65836	-7.7306	108.252	-0.98701	28.4977	66.7321	10.6926	14.5079	
163	1.35833	32.6638	-16.1208	35.5047	14.5256	-20.4891	4.74344	7.27646	-26.085	-28.9291	6.98837	-32.7767	-53.1204	30.8803	-9.57505	-51.8965	29.307	-38.3465	-57.6372	33.5041	-41.6265	-19.4837	51.8544	-15.9623	-57.3386	49.0783	-52.6577	-58.2216	48.0629	-52.0804	-19.1267	73.3945	-31.8028	-57.2704	65.2526	-61.178	-49.9059	66.5045	-52.4146	-15.5883	92.7808	-38.3029	-47.4134	75.991	-65.0385	-41.4489	75.077	-58.1975	-7.16761	92.7149	2.38886	-2.21265	101.249	3.07771	29.63	62.1741	8.29908	23.2829	
164	1.36667	33.8165	-19.3015	36.7209	11.6077	-22.5057	9.82712	2.32164	-22.9849	-26.23	3.3265	-28.7936	-47.7929	30.1653	-2.79946	-46.6646	23.0712	-34.4238	-56.5026	27.8645	-42.3492	-24.2998	45.9826	-10.6383	-56.4618	42.5009	-45.0221	-58.7833	48.4236	-46.8986	-18.2232	68.163	-22.9923	-57.5318	62.352	-52.2437	-53.587	64.4944	-46.449	-16.899	90.3304	-27.2183	-48.7057	79.0447	-59.1865	-48.4579	75.3756	-55.5063	-11.7693	90.4375	6.67032	-0.145667	99.7994	3.06323	35.4306	58.7052	7.79114	27.3611	
165	1.375	33.4835	-19.271	41.9709	9.03021	-21.2474	14.29	-3.76826	-18.9237	-22.4773	-0.387191	-22.4674	-46.4145	21.8112	1.94638	-40.0985	17.9531	-28.7103	-55.404	22.309	-40.8828	-24.1372	45.9158	-3.73386	-52.0397	40.0703	-40.1051	-58.0485	46.878	-44.1502	-19.1959	65.2133	-16.2166	-56.353	54.4494	-43.4211	-56.5963	62.4166	-43.5911	-19.0966	80.484	-21.7827	-49.6506	70.62	-49.3082	-51.358	73.214	-53.4866	-15.7189	85.3738	8.68438	5.54558	97.3475	3.95038	33.4807	56.2879	9.12581	29.4418	
166	1.38333	30.4695	-17.1572	41.1363	7.81752	-18.6567	17.4906	-8.007	-18.4111	-12.091	-6.87455	-19.1803	-37.8225	20.1377	5.25412	-37.296	13.971	-23.0687	-52.8842	17.5887	-38.7844	-22.2628	34.2733	0.89672	-50.474	28.9989	-33.6904	-57.1735	37.3598	-40.0949	-17.2952	57.4127	-9.3941	-53.5621	51.9751	-40.6406	-55.6925	56.4439	-40.9919	-20.3906	77.0013	-14.3917	-44.5052	66.748	-45.3055	-52.5839	65.4763	-47.6553	-20.8842	79.0872	9.87376	3.64178	93.2804	5.13195	33.3544	53.4324	12.07	32.6081	
167	1.39167	26.6884	-17.8738	47.4292	5.10147	-17.891	23.3835	-11.4916	-12.386	-12.3612	-12.286	-15.973	-34.3893	9.63327	10.3614	-32.2251	4.46549	-14.8883	-51.3077	15.116	-36.3338	-19.839	27.5964	6.66015	-45.179	23.8837	-25.9946	-57.5519	36.0767	-38.5534	-17.8024	51.7766	-3.90991	-51.1063	42.7462	-35.2827	-54.8379	52.9358	-37.8683	-20.9973	73.2939	-10.4575	-45.8683	58.866	-37.8493	-52.4677	64.1491	-45.2172	-21.1957	76.8724	11.6151	5.0924	92.8255	7.18661	36.5631	52.57	13.8469	34.7833	
168	1.4	25.1877	-18.7499	51.8724	5.14814	-16.3379	24.8593	-10.5738	-11.8811	-4.57079	-14.8221	-10.2555	-30.0136	7.54057	14.1869	-24.793	3.00219	-11.7192	-47.648	9.82196	-33.344	-21.5284	24.8272	12.0533	-39.8539	18.0866	-19.7307	-56.0084	32.268	-35.429	-20.6954	48.5526	1.14376	-49.7392	40.1441	-31.4128	-53.8509	47.4082	-32.1844	-17.6738	68.0507	-6.58557	-48.2893	52.9145	-33.8015	-49.8229	60.3433	-43.9263	-20.5069	76.0024	14.8293	9.18689	87.6859	9.465	36.8885	52.4271	12.4184	39.4896	
169	1.40833	26.6115	-16.3107	51.7011	1.53761	-13.1427	27.5091	-13.3522	-7.92585	-2.0993	-21.8067	-4.81306	-30.2704	8.67624	18.0816	-28.8819	-0.721386	-3.50029	-46.4021	5.55245	-29.2964	-23.1831	23.4635	16.9326	-38.6169	15.2835	-17.6099	-53.4286	28.6487	-31.5806	-18.074	44.9851	5.75568	-46.9753	36.3776	-25.0666	-53.2787	45.432	-27.7468	-17.4294	65.7816	-2.1422	-47.4001	53.409	-28.3947	-53.3135	57.3187	-37.0159	-18.0284	75.7264	18.2434	8.17848	87.6169	7.07719	41.9056	51.5495	13.1189	40.9803	
170	1.41667	27.4006	-12.9991	47.2393	0.653997	-10.9861	26.7096	-15.3006	-1.75124	-6.03408	-17.1181	-1.54797	-28.4957	9.89234	22.872	-24.159	1.06645	2.2344	-47.0111	8.55018	-26.439	-19.546	27.0996	20.0799	-40.3473	16.0216	-13.4798	-52.8104	30.4168	-26.436	-17.803	43.6323	10.0006	-46.1651	36.4815	-16.9174	-56.5857	47.289	-26.3224	-19.8098	66.1075	1.95809	-44.8854	50.9885	-26.599	-50.9843	60.8411	-35.0866	-19.0394	76.074	17.7406	7.58766	88.9804	9.29023	39.9948	54.1452	14.1325	40.8619	
171	1.425	25.8532	-11.6028	46.6685	6.36556	-9.13478	24.958	-8.73364	0.766263	-7.83736	-14.7782	3.58599	-31.5085	11.3726	26.8364	-26.5071	4.14335	3.9551	-48.8014	10.3817	-22.5283	-23.1328	27.9205	23.2541	-43.2031	22.5945	-9.24997	-56.0883	33.054	-24.8283	-19.7365	50.9887	13.1446	-47.6088	38.1838	-15.648	-55.2089	50.636	-23.6862	-20.2032	68.3265	5.29394	-47.4552	54.9178	-21.5849	-55.0474	60.9344	-31.8773	-19.8553	77.365	19.12	10.4332	91.582	9.77135	37.2712	52.3785	17.0813	42.6475	
172	1.43333	30.6329	-10.8048	42.7354	8.68404	-7.25316	20.3793	-9.32363	2.88737	-11.4994	-9.05317	8.11631	-37.6219	16.1863	29.5239	-26.9654	6.82371	5.73602	-50.6458	14.2231	-21.0775	-25	31.8107	25.751	-42.9379	23.7216	-7.30234	-56.7024	37.1549	-22.5401	-24.0672	53.7677	14.1414	-50.6404	46.3893	-12.4642	-60.3365	50.2193	-21.8805	-23.6512	79.4082	5.30231	-46.2338	61.6077	-23.4426	-55.8043	63.7647	-28.2418	-22.1901	81.8142	20.1065	8.35729	93.2577	9.63383	37.7163	59.2842	17.8003	39.1182	
173	1.44167	35.0077	-10.3668	40.1202	14.2877	-6.71669	15.3631	-2.86511	3.43891	-16.9046	-2.45775	8.02035	-45.1483	23.1316	30.1968	-35.0713	19.3802	7.6281	-56.8909	25.8166	-19.2685	-30.8054	44.2944	25.8377	-47.9843	34.46	-5.84869	-62.1005	43.2866	-21.5804	-25.0448	64.0684	14.7741	-51.2237	53.475	-12.4513	-60.5969	59.4062	-21.3769	-24.2045	87.2958	5.2134	-46.4546	68.8006	-19.9635	-57.1227	68.6093	-30.7538	-23.8262	87.2379	18.7711	9.91455	98.9515	10.8976	40.358	57.4867	19.3925	37.6406	
174	1.45	36.6035	-9.72427	36.9906	18.5509	-5.01157	6.68768	6.59783	-0.655844	-22.4649	6.5861	3.8418	-52.7943	34.0948	28.0462	-42.0077	29.4935	4.0092	-61.6339	34.1746	-20.3925	-31.828	56.9354	23.396	-51.0861	49.1763	-6.68773	-66.7773	49.1218	-24.9355	-28.9246	76.0422	12.0971	-54.0917	66.5219	-19.796	-60.8112	70.2902	-24.9579	-25.3412	95.2969	2.48605	-47.6831	80.8393	-24.4851	-57.1279	77.842	-30.8271	-23.4341	93.9123	21.7866	8.39193	104.403	9.89276	39.5901	64.1342	18.714	34.3858	
175	1.45833	40.3371	-7.89138	30.3838	24.0052	-5.47059	-0.0464773	13.9859	-0.321612	-32.9115	21.3868	-1.16677	-57.1352	46.8447	24.2273	-46.4079	42.5673	-1.49477	-66.143	40.5218	-20.9255	-32.897	66.0303	19.4321	-54.6975	58.9348	-16.2425	-67.5219	63.2249	-28.133	-31.6321	87.4937	5.60271	-57.8838	77.0274	-23.2672	-62.1581	75.9843	-28.0924	-29.2927	105.741	-3.53977	-51.1359	88.8002	-29.9421	-55.1379	86.1733	-38.5705	-24.1723	104.273	18.4296	8.30928	105.02	7.88622	40.078	70.5093	21.4653	29.0687	
176	1.46667	45.3772	-7.43853	26.51	30.4863	-5.93842	-4.65622	23.1086	-2.71678	-40.7285	34.733	-4.85426	-64.0617	58.998	18.8136	-53.6482	51.4036	-8.00658	-68.3999	49.0566	-23.3974	-36.6388	78.9982	12.7016	-60.968	70.9101	-20.869	-68.9779	70.6734	-30.9253	-30.1986	94.7471	0.423047	-59.7155	86.5434	-26.36	-64.4649	84.1102	-31.5682	-25.1896	115.253	-8.98808	-48.5116	102.732	-38.3972	-54.4133	94.5091	-43.1137	-23.3343	109.24	16.0711	2.39002	110.46	8.50132	40.132	74.865	18.7801	24.7654	
177	1.475	46.9653	-7.12585	23.9753	33.0736	-8.66687	-8.89522	35.9116	-6.77706	-44.9364	38.5745	-10.7397	-71.4755	63.192	13.8266	-58.2976	63.4264	-17.0907	-67.8771	57.8921	-26.2132	-35.3166	89.1962	7.57221	-59.7141	77.3162	-28.1613	-68.3845	73.9637	-34.0229	-27.2106	108.896	-7.77114	-58.1072	97.3399	-36.7994	-61.7256	88.7683	-36.5804	-24.8038	125.507	-17.1267	-45.4868	106.688	-42.3284	-52.2092	96.1582	-41.7146	-19.3699	113.762	14.1869	6.32945	115.293	8.79968	39.62	78.3143	20.4591	23.8148	
178	1.48333	52.3736	-6.88743	21.842	39.2071	-9.25642	-14.4744	36.0886	-11.6	-49.0764	45.7579	-16.1879	-73.914	70.3318	8.16972	-58.0845	69.0834	-22.9946	-70.2076	61.8023	-29.8101	-33.2993	93.9509	-0.28184	-61.2811	85.2372	-34.2519	-68.9463	78.1063	-37.0816	-25.5007	110.679	-15.65	-59.5213	104.1	-44.9265	-57.9839	94.3017	-41.8644	-22.8552	127.181	-21.3114	-43.3007	110.451	-49.2827	-47.8159	100.79	-49.6108	-16.6284	116.886	10.7885	2.34056	118.38	9.44057	35.9465	84.4285	17.8524	18.2214	
179	1.49167	53.1532	-5.5966	17.2605	42.7444	-12.6119	-13.0548	42.1243	-18.2876	-45.2187	51.722	-24.301	-71.1608	78.178	-1.13083	-63.4916	69.3069	-30.3875	-68.2111	68.3949	-34.5128	-34.2723	98.247	-6.21618	-61.7498	92.4122	-42.0802	-66.0288	83.1585	-43.6891	-25.5605	117.662	-22.6982	-57.0541	102.083	-50.4808	-54.1112	94.7805	-42.7519	-18.5905	127.926	-30.0431	-44.7347	112.343	-55.14	-43.3512	102.459	-50.9986	-10.3989	121.752	8.11125	2.29539	120.028	7.54582	37.018	85.3765	18.5482	16.9313	
